<?xml version="1.0" encoding="iso-8859-1"?>
<!-- Generator: Adobe Illustrator 19.0.0, SVG Export Plug-In . SVG Version: 6.00 Build 0)  -->
<svg version="1.1" id="Layer_1" xmlns="http://www.w3.org/2000/svg" xmlns:xlink="http://www.w3.org/1999/xlink" x="0px" y="0px"
	 viewBox="0 0 512 512" style="enable-background:new 0 0 512 512;" xml:space="preserve">
<g>
	<g>
		<path d="M349.09,35.968c-28.232,0-51.2,22.968-51.2,51.2s22.968,51.2,51.2,51.2s51.2-22.968,51.2-51.2
			S377.322,35.968,349.09,35.968z M349.09,119.749c-17.966,0-32.582-14.616-32.582-32.582s14.616-32.582,32.582-32.582
			s32.582,14.616,32.582,32.582S367.056,119.749,349.09,119.749z"/>
	</g>
</g>
<g>
	<g>
		<path d="M511.081,50.557c-2.224-4.633-7.781-6.591-12.42-4.364c-63.627,30.541-104.195,91.505-117.318,176.303
			c-7.302,47.18-4.305,88.944-2.167,107.975h-16.121h-32.67h-16.121c2.138-19.032,5.134-60.795-2.167-107.975
			c-13.124-84.798-53.692-145.762-117.318-176.303c-4.638-2.227-10.195-0.272-12.42,4.364s-0.272,10.195,4.364,12.42
			c58.544,28.101,94.511,82.567,106.901,161.887c9.412,60.255,0.92,112.866,0.834,113.39c-0.448,2.698,0.315,5.459,2.083,7.544
			c1.769,2.086,4.365,3.291,7.1,3.291h26.745h32.67h26.745c2.735,0,5.331-1.205,7.1-3.291c1.768-2.085,2.531-4.846,2.083-7.544
			c-0.086-0.524-8.578-53.135,0.834-113.39c12.391-79.32,48.357-133.786,106.901-161.887
			C511.352,60.754,513.306,55.192,511.081,50.557z"/>
	</g>
</g>
<g>
	<g>
		<path d="M253.038,242.663c-2.224-4.635-7.784-6.591-12.421-4.364c-49.75,23.879-81.457,71.465-91.695,137.613
			c-5.382,34.774-3.558,65.78-1.937,81.503h-2.604h-32.671h-3.338c1.651-15.914,3.535-47.497-1.95-82.937
			c-10.393-67.157-42.58-115.468-93.082-139.709c-4.631-2.225-10.195-0.272-12.42,4.364s-0.272,10.195,4.364,12.42
			c108.69,52.172,83.605,212.038,83.339,213.64c-0.449,2.7,0.311,5.46,2.08,7.548c1.769,2.088,4.367,3.292,7.103,3.292h13.904
			h32.671h13.168c2.736,0,5.334-1.205,7.103-3.292c1.768-2.088,2.528-4.848,2.08-7.548c-0.264-1.581-25.116-158.721,81.943-210.11
			C253.309,252.858,255.263,247.298,253.038,242.663z"/>
	</g>
</g>
<g>
	<g>
		<path d="M130.328,246.691c-20.532,0-37.236,16.704-37.236,37.236c0,20.532,16.704,37.236,37.236,37.236
			s37.236-16.704,37.236-37.236C167.564,263.395,150.86,246.691,130.328,246.691z M130.328,302.545
			c-10.266,0-18.618-8.352-18.618-18.618c0-10.266,8.352-18.618,18.618-18.618c10.266,0,18.618,8.352,18.618,18.618
			C148.946,294.193,140.594,302.545,130.328,302.545z"/>
	</g>
</g>
<g>
</g>
<g>
</g>
<g>
</g>
<g>
</g>
<g>
</g>
<g>
</g>
<g>
</g>
<g>
</g>
<g>
</g>
<g>
</g>
<g>
</g>
<g>
</g>
<g>
</g>
<g>
</g>
<g>
</g>
</svg>
