<?xml version="1.0" encoding="UTF-8" standalone="no"?>
<svg width="38px" height="39px" viewBox="0 0 38 39" version="1.1" xmlns="http://www.w3.org/2000/svg" xmlns:xlink="http://www.w3.org/1999/xlink">
    <!-- Generator: Sketch 47.1 (45422) - http://www.bohemiancoding.com/sketch -->
    <title>Page 1</title>
    <desc>Created with Sketch.</desc>
    <defs>
        <polygon id="path-1" points="0.3278 29 33.6738 29 33.6738 0.3504 0.3278 0.3504"></polygon>
        <polygon id="path-3" points="8.88151315e-16 6.385 8.88151315e-16 0.35 37.9995 0.35 37.9995 6.385"></polygon>
        <polygon id="path-5" points="8.88151315e-16 6.3854 8.88151315e-16 0.3504 37.9995 0.3504 37.9995 6.3854 0 6.3854"></polygon>
    </defs>
    <g id="Page-1" stroke="none" stroke-width="1" fill="none" fill-rule="evenodd">
        <g transform="translate(0.000000, -1.000000)">
            <g id="Group-5" transform="translate(2.000000, 0.635900)" fill="#FF782C">
                <path d="M23.066,13.1367 C22.585,13.0237 22.176,12.6637 22.024,12.1567 C21.798,11.4027 22.227,10.6077 22.981,10.3817 C22.999,10.3767 24.837,9.8197 26.756,8.8827 C28.984,7.7947 30.433,6.6207 30.732,5.6607 C30.823,5.3717 30.86,4.9567 30.347,4.3127 C29.497,3.2487 28.789,3.1817 28.331,3.2247 C27.565,3.2947 25.905,3.8987 23.392,7.1497 C21.849,9.1447 20.798,11.1057 20.788,11.1257 C20.417,11.8207 19.553,12.0837 18.859,11.7127 C18.164,11.3427 17.9,10.4787 18.271,9.7837 C18.318,9.6947 19.448,7.5887 21.136,5.4047 C23.556,2.2747 25.889,0.5857 28.069,0.3847 C29.255,0.2747 31,0.5587 32.576,2.5337 C33.836,4.1127 33.749,5.5687 33.454,6.5127 C32.896,8.2997 31.051,9.9657 27.971,11.4637 C25.847,12.4957 23.882,13.0887 23.8,13.1137 C23.552,13.1877 23.301,13.1917 23.066,13.1367" id="Fill-1"></path>
                <path d="M10.9339,13.1367 C11.4149,13.0237 11.8239,12.6637 11.9759,12.1567 C12.2019,11.4027 11.7729,10.6077 11.0189,10.3817 C11.0009,10.3767 9.1629,9.8197 7.2439,8.8827 C5.0169,7.7947 3.5669,6.6207 3.2679,5.6607 C3.1769,5.3717 3.1399,4.9567 3.6529,4.3127 C4.5029,3.2487 5.2109,3.1817 5.6689,3.2247 C6.4349,3.2947 8.0949,3.8987 10.6079,7.1497 C12.1509,9.1447 13.2019,11.1057 13.2119,11.1257 C13.5829,11.8207 14.4469,12.0837 15.1419,11.7127 C15.8369,11.3427 16.0999,10.4787 15.7289,9.7837 C15.6819,9.6947 14.5529,7.5887 12.8639,5.4047 C10.4439,2.2747 8.1109,0.5857 5.9309,0.3847 C4.7449,0.2747 3.0009,0.5587 1.4239,2.5337 C0.1639,4.1127 0.2509,5.5687 0.5459,6.5127 C1.1039,8.2997 2.9489,9.9657 6.0289,11.4637 C8.1529,12.4957 10.1179,13.0887 10.1999,13.1137 C10.4479,13.1877 10.6989,13.1917 10.9339,13.1367" id="Fill-3"></path>
            </g>
            <g id="Group-23" transform="translate(0.000000, 6.635900)">
                <path d="M20.1816,0.7692 L17.8186,0.7692 C17.0246,0.7692 16.3816,1.4122 16.3816,2.2052 L16.3816,4.5552 L21.6176,4.5552 L21.6176,2.2052 C21.6176,1.4122 20.9746,0.7692 20.1816,0.7692" id="Fill-6" fill="#FF9E71"></path>
                <path d="M33.9122,33 L4.0872,33 C3.1152,33 2.3262,32.211 2.3262,31.239 L2.3262,4.35 L35.6732,4.35 L35.6732,31.239 C35.6732,32.211 34.8852,33 33.9122,33" id="Fill-8" fill="#00E300"></path>
                <g id="Group-12" transform="translate(2.000000, 4.000000)">
                    <mask id="mask-2" fill="white">
                        <use xlink:href="#path-1"></use>
                    </mask>
                    <g id="Clip-11"></g>
                    <path d="M30.1338,0.3504 L30.1338,25.5254 C30.1338,26.4984 29.3448,27.2874 28.3728,27.2874 L0.3278,27.2874 C0.3538,28.2374 1.1308,29.0004 2.0878,29.0004 L31.9118,29.0004 C32.8848,29.0004 33.6738,28.2114 33.6738,27.2384 L33.6738,0.3504 L30.1338,0.3504 Z" id="Fill-10" fill="#00D099" mask="url(#mask-2)"></path>
                </g>
                <g id="Group-15" transform="translate(0.000000, 4.000000)">
                    <mask id="mask-4" fill="white">
                        <use xlink:href="#path-3"></use>
                    </mask>
                    <g id="Clip-14"></g>
                    <path d="M37.2425,6.385 L0.7575,6.385 C0.3395,6.385 -0.0005,6.046 -0.0005,5.628 L-0.0005,1.108 C-0.0005,0.69 0.3395,0.35 0.7575,0.35 L37.2425,0.35 C37.6605,0.35 37.9995,0.69 37.9995,1.108 L37.9995,5.628 C37.9995,6.046 37.6605,6.385 37.2425,6.385" id="Fill-13" fill="#00D099" mask="url(#mask-4)"></path>
                </g>
                <g id="Group-18" transform="translate(0.000000, 4.000000)">
                    <mask id="mask-6" fill="white">
                        <use xlink:href="#path-5"></use>
                    </mask>
                    <g id="Clip-17"></g>
                    <path d="M37.2425,0.3504 L34.5485,0.3504 L34.5485,4.5144 C34.5485,4.9324 34.2095,5.2714 33.7915,5.2714 L-0.0005,5.2714 L-0.0005,5.6274 C-0.0005,6.0454 0.3395,6.3854 0.7575,6.3854 L37.2425,6.3854 C37.6605,6.3854 37.9995,6.0454 37.9995,5.6274 L37.9995,1.1074 C37.9995,0.6894 37.6605,0.3504 37.2425,0.3504" id="Fill-16" fill="#00AA78" mask="url(#mask-6)"></path>
                </g>
                <path d="M22.0056,22.2762 L19.1376,19.9052 C19.0146,19.8042 18.8376,19.8062 18.7166,19.9102 L15.9996,22.2532 C15.7876,22.4352 15.4606,22.2852 15.4606,22.0052 L15.4606,4.3502 L22.5396,4.3502 L22.5396,22.0252 C22.5396,22.3012 22.2186,22.4522 22.0056,22.2762" id="Fill-19" fill="#FF9E71"></path>
                <path d="M19,19.8396 C19.049,19.8506 19.097,19.8716 19.138,19.9056 L22.006,22.2766 C22.218,22.4526 22.54,22.3006 22.54,22.0246 L22.54,4.3506 L19,4.3506 L19,19.8396 Z" id="Fill-21" fill="#FF782C"></path>
            </g>
        </g>
    </g>
</svg>