<?xml version="1.0" encoding="UTF-8" standalone="no"?>
<svg width="34px" height="35px" viewBox="0 0 34 35" version="1.1" xmlns="http://www.w3.org/2000/svg" xmlns:xlink="http://www.w3.org/1999/xlink">
    <!-- Generator: Sketch 47.1 (45422) - http://www.bohemiancoding.com/sketch -->
    <title>Page 1</title>
    <desc>Created with Sketch.</desc>
    <defs></defs>
    <g id="Page-1" stroke="none" stroke-width="1" fill="none" fill-rule="evenodd">
        <g>
            <g id="Group-13" transform="translate(0.000000, 1.077500)">
                <path d="M14.6671,31.9636 L11.3551,16.9646 L6.2481,18.0926 L9.4301,32.5046 C9.5581,33.0826 10.0701,33.4936 10.6611,33.4946 L13.4331,33.4976 C14.2411,33.4986 14.8411,32.7516 14.6671,31.9636" id="Fill-1" fill="#00E300"></path>
                <path d="M14.6671,31.9636 L11.3551,16.9646 L8.1331,17.6766 L11.6631,33.4566 C11.6661,33.4696 11.6681,33.4826 11.6711,33.4956 L13.4331,33.4976 C14.2411,33.4986 14.8411,32.7516 14.6671,31.9636" id="Fill-3" fill="#00D099"></path>
                <path d="M9.4853,19.6232 L2.7233,19.6152 C1.2573,19.6142 0.0703,18.4252 0.0723,16.9592 L0.0773,12.2842 C0.0793,10.8182 1.2683,9.6312 2.7343,9.6332 L9.4963,9.6412 L9.4853,19.6232 Z" id="Fill-5" fill="#B4B4B4"></path>
                <path d="M4.0106,16.3822 C2.5456,16.3802 1.3586,15.1912 1.3606,13.7262 L1.3646,10.0122 C0.5946,10.4762 0.0786,11.3192 0.0776,12.2842 L0.0726,16.9592 C0.0706,18.4252 1.2576,19.6142 2.7226,19.6162 L9.4856,19.6232 L9.4886,16.3882 L4.0106,16.3822 Z" id="Fill-7" fill="#818181"></path>
                <path d="M7.2335,10.3703 C7.2315,12.4943 7.2265,16.7483 7.2245,18.8733 C7.2235,19.5853 7.7515,20.1873 8.4585,20.2783 C12.1355,20.7503 23.5105,22.5903 32.2935,28.2603 C33.0075,28.7223 33.9495,28.2043 33.9505,27.3533 L33.9785,1.9493 C33.9795,1.0983 33.0385,0.5783 32.3235,1.0383 C23.5275,6.6883 12.1485,8.5033 8.4705,8.9673 C7.7635,9.0573 7.2345,9.6573 7.2335,10.3703" id="Fill-9" fill="#DBECF9"></path>
                <path d="M33.953,25.2536 C33.618,25.4796 33.161,25.5186 32.772,25.2676 C23.989,19.5976 12.614,17.7576 8.936,17.2856 C8.23,17.1946 7.702,16.5926 7.703,15.8796 C7.704,14.2896 7.707,11.5046 7.71,9.3136 C7.417,9.5746 7.234,9.9526 7.234,10.3706 C7.231,12.4946 7.226,16.7486 7.224,18.8726 C7.223,19.5856 7.751,20.1876 8.458,20.2786 C12.135,20.7506 23.51,22.5906 32.293,28.2606 C33.008,28.7216 33.95,28.2036 33.951,27.3536 L33.953,25.2536 Z" id="Fill-11" fill="#C3DCE9"></path>
            </g>
            <path d="M14.0193,24.0991 L5.6013,24.0921 C4.9163,24.0921 4.3623,23.5361 4.3623,22.8511 L4.3743,8.5571 C4.3743,7.8721 4.9303,7.3181 5.6153,7.3181 L14.0333,7.3251 C14.7173,7.3261 15.2723,7.8811 15.2723,8.5661 L15.2603,22.8601 C15.2593,23.5451 14.7043,24.1001 14.0193,24.0991" id="Fill-14" fill="#FF9E71"></path>
            <g id="Group-22" transform="translate(4.000000, 0.077500)">
                <path d="M11.2602,22.7828 L11.2722,8.4888 C11.2722,7.8038 10.7182,7.2488 10.0332,7.2478 L7.9922,7.2458 L7.9802,21.5038 C7.9802,22.1878 7.4242,22.7428 6.7392,22.7418 L0.3622,22.7368 L0.3622,22.7738 C0.3622,23.4588 0.9172,24.0138 1.6012,24.0148 L10.0192,24.0218 C10.7042,24.0218 11.2592,23.4678 11.2602,22.7828" id="Fill-16" fill="#FF782C"></path>
                <path d="M27.9203,30.6937 L27.9203,30.6937 C29.0443,30.6947 29.9573,29.7837 29.9583,28.6597 L29.9793,2.6417 C29.9803,1.5177 29.0693,0.6047 27.9443,0.6037 C26.8203,0.6027 25.9083,1.5137 25.9073,2.6387 L25.8863,28.6557 C25.8853,29.7807 26.7953,30.6927 27.9203,30.6937" id="Fill-18" fill="#00E300"></path>
                <path d="M29.958,28.6593 L29.979,2.6413 C29.98,1.5173 29.069,0.6053 27.945,0.6043 C27.705,0.6043 27.476,0.6453 27.263,0.7213 C27.745,1.0933 28.056,1.6773 28.055,2.3343 L28.034,28.3513 C28.033,29.2373 27.468,29.9893 26.678,30.2693 C27.022,30.5353 27.452,30.6933 27.92,30.6933 C29.045,30.6943 29.957,29.7833 29.958,28.6593" id="Fill-20" fill="#00D099"></path>
            </g>
            <g id="Group-29" transform="translate(6.000000, 11.077500)" fill="#DBECF9">
                <path d="M0.8337,1.7999 L6.3597,1.8049 C6.6587,1.8049 6.9017,1.5629 6.9017,1.2639 C6.9017,0.9649 6.6607,0.7219 6.3607,0.7219 L0.8347,0.7179 C0.5357,0.7169 0.2927,0.9589 0.2927,1.2579 C0.2927,1.5279 0.4897,1.7519 0.7477,1.7929 C0.7757,1.7979 0.8047,1.7999 0.8337,1.7999" id="Fill-23"></path>
                <path d="M6.363,5.034 C6.662,5.034 6.904,4.792 6.905,4.493 C6.905,4.194 6.663,3.951 6.364,3.952 L0.837,3.947 C0.539,3.947 0.296,4.189 0.296,4.488 C0.296,4.758 0.493,4.981 0.751,5.023 C0.779,5.027 0.807,5.03 0.837,5.03 L6.363,5.034 Z" id="Fill-25"></path>
                <path d="M6.9115,8.0062 C6.9115,7.7072 6.6695,7.4642 6.3705,7.4642 L0.8445,7.4602 C0.5455,7.4602 0.3025,7.7022 0.3025,8.0012 C0.3025,8.2702 0.4995,8.4942 0.7575,8.5352 C0.7855,8.5402 0.8145,8.5422 0.8435,8.5422 L6.3695,8.5472 C6.6685,8.5472 6.9115,8.3052 6.9115,8.0062" id="Fill-27"></path>
            </g>
        </g>
    </g>
</svg>